<?xml version='1.0' encoding='utf-8'?>
<mlt title="Anonymous Submission" LC_NUMERIC="es_ES.UTF-8" producer="main_bin" version="6.20.0" root="/home/ruben/Desktop/2020-phd-ruben-lucas/docs/assets/images/results_images/f1-follow-line/gazebo/comparative_final_all">
 <profile frame_rate_num="30" sample_aspect_num="1" display_aspect_den="984" colorspace="709" progressive="1" description="1568x984 30.00fps" display_aspect_num="1562" frame_rate_den="1" width="1568" height="984" sample_aspect_den="1"/>
 <producer title="Anonymous Submission" id="producer0" in="00:00:00,000" out="00:02:51,900">
  <property name="length">5158</property>
  <property name="eof">pause</property>
  <property name="resource">/home/ruben/Videos/follow_line_ddpg.mp4</property>
  <property name="meta.media.nb_streams">1</property>
  <property name="meta.media.0.stream.type">video</property>
  <property name="meta.media.0.stream.frame_rate">30,0058</property>
  <property name="meta.media.0.stream.sample_aspect_ratio">1</property>
  <property name="meta.media.0.codec.width">1562</property>
  <property name="meta.media.0.codec.height">984</property>
  <property name="meta.media.0.codec.rotate">0</property>
  <property name="meta.media.0.codec.frame_rate">30</property>
  <property name="meta.media.0.codec.pix_fmt">yuv420p</property>
  <property name="meta.media.0.codec.sample_aspect_ratio">1</property>
  <property name="meta.media.0.codec.colorspace">709</property>
  <property name="meta.media.0.codec.color_trc">1</property>
  <property name="meta.media.0.codec.name">h264</property>
  <property name="meta.media.0.codec.long_name">H.264 / AVC / MPEG-4 AVC / MPEG-4 part 10</property>
  <property name="meta.media.0.codec.bit_rate">2362695</property>
  <property name="meta.attr.0.stream.handler_name.markup">VideoHandler</property>
  <property name="meta.attr.major_brand.markup">isom</property>
  <property name="meta.attr.minor_version.markup">512</property>
  <property name="meta.attr.compatible_brands.markup">isomiso2avc1mp41</property>
  <property name="meta.attr.encoder.markup">Lavf58.29.100</property>
  <property name="seekable">1</property>
  <property name="meta.media.sample_aspect_num">1</property>
  <property name="meta.media.sample_aspect_den">1</property>
  <property name="aspect_ratio">1</property>
  <property name="audio_index">-1</property>
  <property name="video_index">0</property>
  <property name="mute_on_pause">1</property>
  <property name="mlt_service">avformat</property>
  <property name="kdenlive:clipname"/>
  <property name="kdenlive:id">2</property>
  <property name="kdenlive:file_size">50840091</property>
  <property name="kdenlive:file_hash">eaa12212969a0b090dc37ca61ea6e96a</property>
  <property name="kdenlive:folderid">-1</property>
  <property name="global_feed">1</property>
  <property name="meta.media.frame_rate_num">77385</property>
  <property name="meta.media.frame_rate_den">2579</property>
  <property name="meta.media.colorspace">709</property>
  <property name="meta.media.color_trc">1</property>
  <property name="meta.media.width">1562</property>
  <property name="meta.media.height">984</property>
  <property name="meta.media.color_range">mpeg</property>
  <property name="meta.media.top_field_first">0</property>
  <property name="meta.media.progressive">1</property>
 </producer>
 <producer title="Anonymous Submission" id="producer1" in="00:00:00,000" out="00:02:21,233">
  <property name="length">4238</property>
  <property name="eof">pause</property>
  <property name="resource">/home/ruben/Videos/follow_qlearn.mp4</property>
  <property name="meta.media.nb_streams">1</property>
  <property name="meta.media.0.stream.type">video</property>
  <property name="meta.media.0.stream.frame_rate">30,0071</property>
  <property name="meta.media.0.stream.sample_aspect_ratio">1</property>
  <property name="meta.media.0.codec.width">1562</property>
  <property name="meta.media.0.codec.height">984</property>
  <property name="meta.media.0.codec.rotate">0</property>
  <property name="meta.media.0.codec.frame_rate">30</property>
  <property name="meta.media.0.codec.pix_fmt">yuv420p</property>
  <property name="meta.media.0.codec.sample_aspect_ratio">1</property>
  <property name="meta.media.0.codec.colorspace">709</property>
  <property name="meta.media.0.codec.color_trc">1</property>
  <property name="meta.media.0.codec.name">h264</property>
  <property name="meta.media.0.codec.long_name">H.264 / AVC / MPEG-4 AVC / MPEG-4 part 10</property>
  <property name="meta.media.0.codec.bit_rate">2878651</property>
  <property name="meta.attr.0.stream.handler_name.markup">VideoHandler</property>
  <property name="meta.attr.major_brand.markup">isom</property>
  <property name="meta.attr.minor_version.markup">512</property>
  <property name="meta.attr.compatible_brands.markup">isomiso2avc1mp41</property>
  <property name="meta.attr.encoder.markup">Lavf58.29.100</property>
  <property name="seekable">1</property>
  <property name="meta.media.sample_aspect_num">1</property>
  <property name="meta.media.sample_aspect_den">1</property>
  <property name="aspect_ratio">1</property>
  <property name="audio_index">-1</property>
  <property name="video_index">0</property>
  <property name="mute_on_pause">0</property>
  <property name="mlt_service">avformat-novalidate</property>
  <property name="kdenlive:clipname"/>
  <property name="kdenlive:folderid">-1</property>
  <property name="meta.media.frame_rate_num">63585</property>
  <property name="meta.media.frame_rate_den">2119</property>
  <property name="meta.media.colorspace">709</property>
  <property name="meta.media.color_trc">1</property>
  <property name="meta.media.width">1562</property>
  <property name="meta.media.height">984</property>
  <property name="meta.media.color_range">mpeg</property>
  <property name="kdenlive:id">5</property>
  <property name="kdenlive:file_size">50883110</property>
  <property name="kdenlive:file_hash">4f15e007f0e1f2e2424150ff88e33157</property>
  <property name="meta.media.top_field_first">0</property>
  <property name="meta.media.progressive">1</property>
  <property name="global_feed">1</property>
 </producer>
 <producer title="Anonymous Submission" id="producer2" in="00:00:00,000" out="00:02:11,200">
  <property name="length">3937</property>
  <property name="eof">pause</property>
  <property name="resource">/home/ruben/Videos/follow_line_dqn.mp4</property>
  <property name="meta.media.nb_streams">1</property>
  <property name="meta.media.0.stream.type">video</property>
  <property name="meta.media.0.stream.frame_rate">30,0076</property>
  <property name="meta.media.0.stream.sample_aspect_ratio">1</property>
  <property name="meta.media.0.codec.width">1562</property>
  <property name="meta.media.0.codec.height">984</property>
  <property name="meta.media.0.codec.rotate">0</property>
  <property name="meta.media.0.codec.frame_rate">30</property>
  <property name="meta.media.0.codec.pix_fmt">yuv420p</property>
  <property name="meta.media.0.codec.sample_aspect_ratio">1</property>
  <property name="meta.media.0.codec.colorspace">709</property>
  <property name="meta.media.0.codec.color_trc">1</property>
  <property name="meta.media.0.codec.name">h264</property>
  <property name="meta.media.0.codec.long_name">H.264 / AVC / MPEG-4 AVC / MPEG-4 part 10</property>
  <property name="meta.media.0.codec.bit_rate">3193051</property>
  <property name="meta.attr.0.stream.handler_name.markup">VideoHandler</property>
  <property name="meta.attr.major_brand.markup">isom</property>
  <property name="meta.attr.minor_version.markup">512</property>
  <property name="meta.attr.compatible_brands.markup">isomiso2avc1mp41</property>
  <property name="meta.attr.encoder.markup">Lavf58.29.100</property>
  <property name="seekable">1</property>
  <property name="meta.media.sample_aspect_num">1</property>
  <property name="meta.media.sample_aspect_den">1</property>
  <property name="aspect_ratio">1</property>
  <property name="audio_index">-1</property>
  <property name="video_index">0</property>
  <property name="mute_on_pause">0</property>
  <property name="mlt_service">avformat-novalidate</property>
  <property name="kdenlive:clipname"/>
  <property name="kdenlive:folderid">-1</property>
  <property name="meta.media.frame_rate_num">118140</property>
  <property name="meta.media.frame_rate_den">3937</property>
  <property name="meta.media.colorspace">709</property>
  <property name="meta.media.color_trc">1</property>
  <property name="meta.media.width">1562</property>
  <property name="meta.media.height">984</property>
  <property name="meta.media.color_range">mpeg</property>
  <property name="kdenlive:id">6</property>
  <property name="kdenlive:file_size">52427225</property>
  <property name="kdenlive:file_hash">de98ec34d991428f80d14cdc2c275a12</property>
  <property name="meta.media.top_field_first">0</property>
  <property name="meta.media.progressive">1</property>
  <property name="global_feed">1</property>
 </producer>
 <producer title="Anonymous Submission" id="producer3" in="00:00:00,000" out="00:02:04,300">
  <property name="length">3730</property>
  <property name="eof">pause</property>
  <property name="resource">/home/ruben/Videos/ppo.mp4</property>
  <property name="meta.media.nb_streams">1</property>
  <property name="meta.media.0.stream.type">video</property>
  <property name="meta.media.0.stream.frame_rate">30,008</property>
  <property name="meta.media.0.stream.sample_aspect_ratio">1</property>
  <property name="meta.media.0.codec.width">1562</property>
  <property name="meta.media.0.codec.height">984</property>
  <property name="meta.media.0.codec.rotate">0</property>
  <property name="meta.media.0.codec.frame_rate">30</property>
  <property name="meta.media.0.codec.pix_fmt">yuv420p</property>
  <property name="meta.media.0.codec.sample_aspect_ratio">1</property>
  <property name="meta.media.0.codec.colorspace">709</property>
  <property name="meta.media.0.codec.color_trc">1</property>
  <property name="meta.media.0.codec.name">h264</property>
  <property name="meta.media.0.codec.long_name">H.264 / AVC / MPEG-4 AVC / MPEG-4 part 10</property>
  <property name="meta.media.0.codec.bit_rate">3413888</property>
  <property name="meta.attr.0.stream.handler_name.markup">VideoHandler</property>
  <property name="meta.attr.major_brand.markup">isom</property>
  <property name="meta.attr.minor_version.markup">512</property>
  <property name="meta.attr.compatible_brands.markup">isomiso2avc1mp41</property>
  <property name="meta.attr.encoder.markup">Lavf58.29.100</property>
  <property name="seekable">1</property>
  <property name="meta.media.sample_aspect_num">1</property>
  <property name="meta.media.sample_aspect_den">1</property>
  <property name="aspect_ratio">1</property>
  <property name="audio_index">-1</property>
  <property name="video_index">0</property>
  <property name="mute_on_pause">0</property>
  <property name="mlt_service">avformat-novalidate</property>
  <property name="kdenlive:clipname"/>
  <property name="kdenlive:folderid">-1</property>
  <property name="meta.media.frame_rate_num">11193</property>
  <property name="meta.media.frame_rate_den">373</property>
  <property name="meta.media.colorspace">709</property>
  <property name="meta.media.color_trc">1</property>
  <property name="meta.media.width">1562</property>
  <property name="meta.media.height">984</property>
  <property name="meta.media.color_range">mpeg</property>
  <property name="kdenlive:id">7</property>
  <property name="kdenlive:file_size">53102521</property>
  <property name="kdenlive:file_hash">9bbc26c57c85d3358c2c558ed1658077</property>
  <property name="meta.media.top_field_first">0</property>
  <property name="meta.media.progressive">1</property>
  <property name="global_feed">1</property>
 </producer>
 <producer id="producer4" in="00:00:00,000" out="00:02:48,667">
  <property name="length">5061</property>
  <property name="eof">pause</property>
  <property name="resource"/>
  <property name="progressive">1</property>
  <property name="aspect_ratio">1</property>
  <property name="seekable">1</property>
  <property name="mlt_service">kdenlivetitle</property>
  <property name="kdenlive:duration">150</property>
  <property name="kdenlive:clipname">DDPG</property>
  <property name="xmldata">&lt;kdenlivetitle duration="150" LC_NUMERIC="es_ES.UTF-8" width="1562" height="984" out="149">
 &lt;item type="QGraphicsTextItem" z-index="0">
  &lt;position x="1127" y="4">
   &lt;transform zoom="60">0.6,0,0,0,0.6,0,0,0,1&lt;/transform>
  &lt;/position>
  &lt;content shadow="0;#64000000;3;3;3" font-underline="0" box-height="57" font="Ubuntu" letter-spacing="0" font-pixel-size="50" font-italic="0" alignment="2" font-weight="50" box-width="135.266" font-color="255,255,255,255">DDPG&lt;/content>
 &lt;/item>
 &lt;startviewport rect="0,0,1562,984"/>
 &lt;endviewport rect="0,0,1562,984"/>
 &lt;background color="0,0,0,0"/>
&lt;/kdenlivetitle>
</property>
  <property name="kdenlive:folderid">-1</property>
  <property name="kdenlive:id">9</property>
  <property name="kdenlive:file_hash">9c7ac2d607567c1eb27f2d3c2f42538a</property>
  <property name="force_reload">0</property>
  <property name="meta.media.width">1562</property>
  <property name="meta.media.height">984</property>
 </producer>
 <producer id="producer5" in="00:00:00,000" out="00:02:49,367">
  <property name="length">5082</property>
  <property name="eof">pause</property>
  <property name="resource"/>
  <property name="progressive">1</property>
  <property name="aspect_ratio">1</property>
  <property name="seekable">1</property>
  <property name="mlt_service">kdenlivetitle</property>
  <property name="kdenlive:duration">150</property>
  <property name="kdenlive:clipname">QLEARN</property>
  <property name="xmldata">&lt;kdenlivetitle duration="150" LC_NUMERIC="es_ES.UTF-8" width="1562" height="984" out="149">
 &lt;item type="QGraphicsTextItem" z-index="0">
  &lt;position x="323" y="542">
   &lt;transform zoom="58">0.58,0,0,0,0.58,0,0,0,1&lt;/transform>
  &lt;/position>
  &lt;content shadow="0;#64000000;3;3;3" font-underline="0" box-height="57" font="Ubuntu" letter-spacing="0" font-pixel-size="50" font-italic="0" alignment="2" font-weight="50" box-width="195.188" font-color="255,255,255,255">QLEARN&lt;/content>
 &lt;/item>
 &lt;startviewport rect="0,0,1562,984"/>
 &lt;endviewport rect="0,0,1562,984"/>
 &lt;background color="0,0,0,0"/>
&lt;/kdenlivetitle>
</property>
  <property name="kdenlive:folderid">-1</property>
  <property name="kdenlive:id">10</property>
  <property name="kdenlive:file_hash">205f0384d284b0826676ee44211bc418</property>
  <property name="force_reload">0</property>
  <property name="meta.media.width">1562</property>
  <property name="meta.media.height">984</property>
 </producer>
 <producer id="producer6" in="00:00:00,000" out="00:02:48,667">
  <property name="length">5061</property>
  <property name="eof">pause</property>
  <property name="resource"/>
  <property name="progressive">1</property>
  <property name="aspect_ratio">1</property>
  <property name="seekable">1</property>
  <property name="mlt_service">kdenlivetitle</property>
  <property name="kdenlive:duration">150</property>
  <property name="kdenlive:clipname">PPO</property>
  <property name="xmldata">&lt;kdenlivetitle duration="150" LC_NUMERIC="es_ES.UTF-8" width="1562" height="984" out="149">
 &lt;item type="QGraphicsTextItem" z-index="0">
  &lt;position x="1124" y="541">
   &lt;transform zoom="60">0.6,0,0,0,0.6,0,0,0,1&lt;/transform>
  &lt;/position>
  &lt;content shadow="0;#64000000;3;3;3" font-underline="0" box-height="114" font="Ubuntu" letter-spacing="0" font-pixel-size="50" font-italic="0" alignment="2" font-weight="50" box-width="99.6719" font-color="255,255,255,255">PPO
&lt;/content>
 &lt;/item>
 &lt;startviewport rect="0,0,1562,984"/>
 &lt;endviewport rect="0,0,1562,984"/>
 &lt;background color="0,0,0,0"/>
&lt;/kdenlivetitle>
</property>
  <property name="kdenlive:folderid">-1</property>
  <property name="kdenlive:id">11</property>
  <property name="kdenlive:file_hash">56e19adc85ecc7a05d73bd6a8f317744</property>
  <property name="force_reload">0</property>
  <property name="meta.media.width">1562</property>
  <property name="meta.media.height">984</property>
 </producer>
 <producer id="producer7" in="00:00:00,000" out="00:00:49,700">
  <property name="length">1492</property>
  <property name="eof">pause</property>
  <property name="resource"/>
  <property name="progressive">1</property>
  <property name="aspect_ratio">1</property>
  <property name="seekable">1</property>
  <property name="mlt_service">kdenlivetitle</property>
  <property name="kdenlive:duration">150</property>
  <property name="kdenlive:clipname">02:00</property>
  <property name="xmldata">&lt;kdenlivetitle duration="150" LC_NUMERIC="es_ES.UTF-8" width="1562" height="984" out="149">
 &lt;item type="QGraphicsTextItem" z-index="0">
  &lt;position x="1097" y="713">
   &lt;transform>1,0,0,0,1,0,0,0,1&lt;/transform>
  &lt;/position>
  &lt;content shadow="0;#64000000;3;3;3" font-underline="0" box-height="57" font="Ubuntu" letter-spacing="0" font-pixel-size="50" font-italic="0" alignment="2" font-weight="50" box-width="125.047" font-color="255,255,255,255">01:57&lt;/content>
 &lt;/item>
 &lt;startviewport rect="0,0,1562,984"/>
 &lt;endviewport rect="0,0,1562,984"/>
 &lt;background color="0,0,0,0"/>
&lt;/kdenlivetitle>
</property>
  <property name="kdenlive:folderid">-1</property>
  <property name="kdenlive:id">13</property>
  <property name="kdenlive:file_hash">8c2c516e09a0b4556d85ed61c5506411</property>
  <property name="force_reload">0</property>
  <property name="meta.media.width">1562</property>
  <property name="meta.media.height">984</property>
 </producer>
 <producer id="producer8" in="00:00:00,000" out="00:02:48,667">
  <property name="length">5061</property>
  <property name="eof">pause</property>
  <property name="resource"/>
  <property name="progressive">1</property>
  <property name="aspect_ratio">1</property>
  <property name="seekable">1</property>
  <property name="mlt_service">kdenlivetitle</property>
  <property name="kdenlive:duration">150</property>
  <property name="kdenlive:clipname">DQN</property>
  <property name="xmldata">&lt;kdenlivetitle duration="150" LC_NUMERIC="es_ES.UTF-8" width="1562" height="984" out="149">
 &lt;item type="QGraphicsTextItem" z-index="0">
  &lt;position x="355" y="2">
   &lt;transform zoom="60">0.6,0,0,0,0.6,0,0,0,1&lt;/transform>
  &lt;/position>
  &lt;content shadow="0;#64000000;3;3;3" font-underline="0" box-height="57" font="Ubuntu" letter-spacing="0" font-pixel-size="50" font-italic="0" alignment="2" font-weight="50" box-width="110.922" font-color="255,255,255,255">DQN&lt;/content>
 &lt;/item>
 &lt;startviewport rect="0,0,1562,984"/>
 &lt;endviewport rect="0,0,1562,984"/>
 &lt;background color="0,0,0,0"/>
&lt;/kdenlivetitle>
</property>
  <property name="kdenlive:folderid">-1</property>
  <property name="kdenlive:id">14</property>
  <property name="kdenlive:file_hash">f345605bbffa961f974e0e2ca78765f4</property>
  <property name="force_reload">0</property>
  <property name="meta.media.width">1562</property>
  <property name="meta.media.height">984</property>
 </producer>
 <producer id="producer9" in="00:00:00,000" out="00:00:43,567">
  <property name="length">1308</property>
  <property name="eof">pause</property>
  <property name="resource"/>
  <property name="progressive">1</property>
  <property name="aspect_ratio">1</property>
  <property name="seekable">1</property>
  <property name="mlt_service">kdenlivetitle</property>
  <property name="kdenlive:duration">150</property>
  <property name="kdenlive:clipname">02:07</property>
  <property name="xmldata">&lt;kdenlivetitle duration="150" LC_NUMERIC="es_ES.UTF-8" width="1562" height="984" out="149">
 &lt;item type="QGraphicsTextItem" z-index="0">
  &lt;position x="327" y="216">
   &lt;transform>1,0,0,0,1,0,0,0,1&lt;/transform>
  &lt;/position>
  &lt;content shadow="0;#64000000;3;3;3" font-underline="0" box-height="171" font="Ubuntu" letter-spacing="0" font-pixel-size="50" font-italic="0" alignment="2" font-weight="50" box-width="125.047" font-color="255,255,255,255">02:03

&lt;/content>
 &lt;/item>
 &lt;startviewport rect="0,0,1562,984"/>
 &lt;endviewport rect="0,0,1562,984"/>
 &lt;background color="0,0,0,0"/>
&lt;/kdenlivetitle>
</property>
  <property name="kdenlive:folderid">-1</property>
  <property name="kdenlive:id">15</property>
  <property name="kdenlive:file_hash">05dfafb35fcea7ef4b2877dd143b8783</property>
  <property name="force_reload">0</property>
  <property name="meta.media.width">1562</property>
  <property name="meta.media.height">984</property>
 </producer>
 <producer id="producer10" in="00:00:00,000" out="00:00:37,600">
  <property name="length">1129</property>
  <property name="eof">pause</property>
  <property name="resource"/>
  <property name="progressive">1</property>
  <property name="aspect_ratio">1</property>
  <property name="seekable">1</property>
  <property name="mlt_service">kdenlivetitle</property>
  <property name="kdenlive:duration">150</property>
  <property name="kdenlive:clipname">02:11</property>
  <property name="xmldata">&lt;kdenlivetitle duration="150" LC_NUMERIC="es_ES.UTF-8" width="1562" height="984" out="149">
 &lt;item type="QGraphicsTextItem" z-index="0">
  &lt;position x="315" y="707">
   &lt;transform>1,0,0,0,1,0,0,0,1&lt;/transform>
  &lt;/position>
  &lt;content shadow="0;#64000000;3;3;3" font-underline="0" box-height="114" font="Ubuntu" letter-spacing="0" font-pixel-size="50" font-italic="0" alignment="2" font-weight="50" box-width="125.047" font-color="255,255,255,255">02:09
&lt;/content>
 &lt;/item>
 &lt;startviewport rect="0,0,1562,984"/>
 &lt;endviewport rect="0,0,1562,984"/>
 &lt;background color="0,0,0,0"/>
&lt;/kdenlivetitle>
</property>
  <property name="kdenlive:folderid">-1</property>
  <property name="kdenlive:id">16</property>
  <property name="kdenlive:file_hash">59daf1e74caac373d561d633215bd384</property>
  <property name="force_reload">0</property>
  <property name="meta.media.width">1562</property>
  <property name="meta.media.height">984</property>
 </producer>
 <producer id="producer11" in="00:00:00,000" out="00:00:04,967">
  <property name="length">150</property>
  <property name="eof">pause</property>
  <property name="resource"/>
  <property name="progressive">1</property>
  <property name="aspect_ratio">1</property>
  <property name="seekable">1</property>
  <property name="mlt_service">kdenlivetitle</property>
  <property name="kdenlive:duration">150</property>
  <property name="kdenlive:clipname">02:45</property>
  <property name="xmldata">&lt;kdenlivetitle duration="150" LC_NUMERIC="es_ES.UTF-8" width="1562" height="984" out="149">
 &lt;item type="QGraphicsTextItem" z-index="0">
  &lt;position x="1101" y="224">
   &lt;transform>1,0,0,0,1,0,0,0,1&lt;/transform>
  &lt;/position>
  &lt;content shadow="0;#64000000;3;3;3" font-underline="0" box-height="114" font="Ubuntu" letter-spacing="0" font-pixel-size="50" font-italic="0" alignment="2" font-weight="50" box-width="125.047" font-color="255,255,255,255">02:43
&lt;/content>
 &lt;/item>
 &lt;startviewport rect="0,0,1562,984"/>
 &lt;endviewport rect="0,0,1562,984"/>
 &lt;background color="0,0,0,0"/>
&lt;/kdenlivetitle>
</property>
  <property name="kdenlive:folderid">-1</property>
  <property name="kdenlive:id">17</property>
  <property name="kdenlive:file_hash">e130b91d96ea8f9158f6cd541c2c9f8f</property>
  <property name="force_reload">0</property>
  <property name="meta.media.width">1562</property>
  <property name="meta.media.height">984</property>
 </producer>
 <producer id="producer12" in="00:00:00,000" out="00:00:12,467">
  <property name="length">375</property>
  <property name="eof">pause</property>
  <property name="resource">/home/ruben/Desktop/2020-phd-ruben-lucas/docs/assets/images/results_images/f1-follow-line/gazebo/Screenshot from 2023-09-21 08-32-52.png</property>
  <property name="ttl">25</property>
  <property name="aspect_ratio">1</property>
  <property name="progressive">1</property>
  <property name="seekable">1</property>
  <property name="meta.media.width">1574</property>
  <property name="meta.media.height">846</property>
  <property name="mlt_service">qimage</property>
  <property name="kdenlive:clipname"/>
  <property name="kdenlive:duration">00:00:05,000</property>
  <property name="kdenlive:folderid">-1</property>
  <property name="kdenlive:id">18</property>
  <property name="kdenlive:file_size">60739</property>
  <property name="kdenlive:file_hash">d7c198e80fda1c8ebca20e4f7d938ecb</property>
 </producer>
 <producer id="producer13" in="00:00:00,000" out="00:00:10,300">
  <property name="length">310</property>
  <property name="eof">pause</property>
  <property name="resource">comparison_1.png</property>
  <property name="ttl">25</property>
  <property name="aspect_ratio">1</property>
  <property name="progressive">1</property>
  <property name="seekable">1</property>
  <property name="meta.media.width">1561</property>
  <property name="meta.media.height">875</property>
  <property name="mlt_service">qimage</property>
  <property name="kdenlive:clipname"/>
  <property name="kdenlive:duration">00:00:05,000</property>
  <property name="kdenlive:folderid">-1</property>
  <property name="kdenlive:id">19</property>
  <property name="kdenlive:file_size">72228</property>
  <property name="kdenlive:file_hash">e794854db0d915f83fb010be5da6f344</property>
 </producer>
 <playlist id="main_bin">
  <property name="kdenlive:docproperties.activeTrack">9</property>
  <property name="kdenlive:docproperties.audioTarget">-1</property>
  <property name="kdenlive:docproperties.decimalPoint">,</property>
  <property name="kdenlive:docproperties.disablepreview">0</property>
  <property name="kdenlive:docproperties.documentid">1705790707196</property>
  <property name="kdenlive:docproperties.enableTimelineZone">0</property>
  <property name="kdenlive:docproperties.enableexternalproxy">0</property>
  <property name="kdenlive:docproperties.enableproxy">0</property>
  <property name="kdenlive:docproperties.externalproxyparams"/>
  <property name="kdenlive:docproperties.generateimageproxy">0</property>
  <property name="kdenlive:docproperties.generateproxy">0</property>
  <property name="kdenlive:docproperties.kdenliveversion">19.12.3</property>
  <property name="kdenlive:docproperties.position">5309</property>
  <property name="kdenlive:docproperties.previewextension"/>
  <property name="kdenlive:docproperties.previewparameters"/>
  <property name="kdenlive:docproperties.profile">/home/ruben/.local/share/kdenlive/profiles/customprofile5</property>
  <property name="kdenlive:docproperties.proxyextension"/>
  <property name="kdenlive:docproperties.proxyimageminsize">2000</property>
  <property name="kdenlive:docproperties.proxyimagesize">800</property>
  <property name="kdenlive:docproperties.proxyminsize">1000</property>
  <property name="kdenlive:docproperties.proxyparams"/>
  <property name="kdenlive:docproperties.scrollPos">1680</property>
  <property name="kdenlive:docproperties.seekOffset">30000</property>
  <property name="kdenlive:docproperties.version">0.99</property>
  <property name="kdenlive:docproperties.verticalzoom">1</property>
  <property name="kdenlive:docproperties.videoTarget">9</property>
  <property name="kdenlive:docproperties.zonein">0</property>
  <property name="kdenlive:docproperties.zoneout">75</property>
  <property name="kdenlive:docproperties.zoom">8</property>
  <property name="kdenlive:documentnotes"/>
  <property name="kdenlive:docproperties.groups">[
]
</property>
  <property name="xml_retain">1</property>
  <entry producer="producer0" in="00:00:00,000" out="00:02:51,900"/>
  <entry producer="producer1" in="00:00:00,000" out="00:02:21,233"/>
  <entry producer="producer2" in="00:00:00,000" out="00:02:11,200"/>
  <entry producer="producer3" in="00:00:00,000" out="00:02:04,300"/>
  <entry producer="producer4" in="00:00:00,000" out="00:00:04,967"/>
  <entry producer="producer5" in="00:00:00,000" out="00:00:04,967"/>
  <entry producer="producer6" in="00:00:00,000" out="00:00:04,967"/>
  <entry producer="producer7" in="00:00:00,000" out="00:00:04,967"/>
  <entry producer="producer8" in="00:00:00,000" out="00:00:04,967"/>
  <entry producer="producer9" in="00:00:00,000" out="00:00:04,967"/>
  <entry producer="producer10" in="00:00:00,000" out="00:00:04,967"/>
  <entry producer="producer11" in="00:00:00,000" out="00:00:04,967"/>
  <entry producer="producer12" in="00:00:00,000" out="00:00:04,967"/>
  <entry producer="producer13" in="00:00:00,000" out="00:00:04,967"/>
 </playlist>
 <producer id="black_track" in="00:00:00,000" out="00:23:32,360">
  <property name="length">2147483647</property>
  <property name="eof">continue</property>
  <property name="resource">black</property>
  <property name="aspect_ratio">1</property>
  <property name="mlt_service">color</property>
  <property name="mlt_image_format">rgb24a</property>
  <property name="set.test_audio">0</property>
 </producer>
 <playlist id="playlist0">
  <property name="kdenlive:audio_track">1</property>
 </playlist>
 <playlist id="playlist1">
  <property name="kdenlive:audio_track">1</property>
 </playlist>
 <tractor id="tractor0" in="00:00:00,000">
  <property name="kdenlive:audio_track">1</property>
  <property name="kdenlive:trackheight">65</property>
  <property name="kdenlive:collapsed">0</property>
  <property name="kdenlive:thumbs_format"/>
  <property name="kdenlive:audio_rec"/>
  <property name="kdenlive:timeline_active"/>
  <track hide="video" producer="playlist0"/>
  <track hide="video" producer="playlist1"/>
  <filter id="filter0">
   <property name="window">75</property>
   <property name="max_gain">20dB</property>
   <property name="mlt_service">volume</property>
   <property name="internal_added">237</property>
   <property name="disable">1</property>
  </filter>
  <filter id="filter1">
   <property name="channel">-1</property>
   <property name="mlt_service">panner</property>
   <property name="internal_added">237</property>
   <property name="start">0,5</property>
   <property name="disable">1</property>
  </filter>
  <filter id="filter2">
   <property name="iec_scale">0</property>
   <property name="mlt_service">audiolevel</property>
  </filter>
 </tractor>
 <playlist id="playlist2">
  <property name="kdenlive:audio_track">1</property>
 </playlist>
 <playlist id="playlist3">
  <property name="kdenlive:audio_track">1</property>
 </playlist>
 <tractor id="tractor1" in="00:00:00,000">
  <property name="kdenlive:audio_track">1</property>
  <property name="kdenlive:trackheight">65</property>
  <property name="kdenlive:collapsed">0</property>
  <property name="kdenlive:thumbs_format"/>
  <property name="kdenlive:audio_rec"/>
  <property name="kdenlive:timeline_active">1</property>
  <track hide="video" producer="playlist2"/>
  <track hide="video" producer="playlist3"/>
  <filter id="filter3">
   <property name="window">75</property>
   <property name="max_gain">20dB</property>
   <property name="mlt_service">volume</property>
   <property name="internal_added">237</property>
   <property name="disable">1</property>
  </filter>
  <filter id="filter4">
   <property name="channel">-1</property>
   <property name="mlt_service">panner</property>
   <property name="internal_added">237</property>
   <property name="start">0,5</property>
   <property name="disable">1</property>
  </filter>
  <filter id="filter5">
   <property name="iec_scale">0</property>
   <property name="mlt_service">audiolevel</property>
  </filter>
 </tractor>
 <producer title="Anonymous Submission" id="producer14" in="00:00:00,000" out="00:02:04,300">
  <property name="length">3730</property>
  <property name="eof">pause</property>
  <property name="resource">/home/ruben/Videos/ppo.mp4</property>
  <property name="audio_index">-1</property>
  <property name="video_index">0</property>
  <property name="mute_on_pause">0</property>
  <property name="mlt_service">avformat-novalidate</property>
  <property name="seekable">1</property>
  <property name="aspect_ratio">1</property>
  <property name="kdenlive:clipname"/>
  <property name="kdenlive:folderid">-1</property>
  <property name="kdenlive:id">7</property>
  <property name="kdenlive:file_size">53102521</property>
  <property name="kdenlive:file_hash">9bbc26c57c85d3358c2c558ed1658077</property>
  <property name="global_feed">1</property>
  <property name="xml">was here</property>
  <property name="meta.media.nb_streams">1</property>
  <property name="meta.media.0.stream.type">video</property>
  <property name="meta.media.0.stream.frame_rate">30,008</property>
  <property name="meta.media.0.stream.sample_aspect_ratio">1</property>
  <property name="meta.media.0.codec.width">1562</property>
  <property name="meta.media.0.codec.height">984</property>
  <property name="meta.media.0.codec.rotate">0</property>
  <property name="meta.media.0.codec.frame_rate">30</property>
  <property name="meta.media.0.codec.pix_fmt">yuv420p</property>
  <property name="meta.media.0.codec.sample_aspect_ratio">1</property>
  <property name="meta.media.0.codec.colorspace">709</property>
  <property name="meta.media.0.codec.color_trc">1</property>
  <property name="meta.media.0.codec.name">h264</property>
  <property name="meta.media.0.codec.long_name">H.264 / AVC / MPEG-4 AVC / MPEG-4 part 10</property>
  <property name="meta.media.0.codec.bit_rate">3413888</property>
  <property name="meta.attr.0.stream.handler_name.markup">VideoHandler</property>
  <property name="meta.attr.major_brand.markup">isom</property>
  <property name="meta.attr.minor_version.markup">512</property>
  <property name="meta.attr.compatible_brands.markup">isomiso2avc1mp41</property>
  <property name="meta.attr.encoder.markup">Lavf58.29.100</property>
  <property name="meta.media.sample_aspect_num">1</property>
  <property name="meta.media.sample_aspect_den">1</property>
  <property name="meta.media.frame_rate_num">11193</property>
  <property name="meta.media.frame_rate_den">373</property>
  <property name="meta.media.colorspace">709</property>
  <property name="meta.media.color_trc">1</property>
  <property name="meta.media.width">1562</property>
  <property name="meta.media.height">984</property>
  <property name="meta.media.color_range">mpeg</property>
  <property name="meta.media.top_field_first">0</property>
  <property name="meta.media.progressive">1</property>
  <property name="set.test_audio">1</property>
  <property name="set.test_image">0</property>
 </producer>
 <playlist id="playlist4">
  <entry producer="producer14" in="00:00:03,633" out="00:02:00,500">
   <property name="kdenlive:id">7</property>
   <filter id="filter6">
    <property name="rotate_center">1</property>
    <property name="mlt_service">qtblend</property>
    <property name="kdenlive_id">qtblend</property>
    <property name="rect">00:00:03,633=750 500 848 532 1</property>
    <property name="rotation">00:00:03,633=0</property>
    <property name="compositing">0</property>
    <property name="distort">0</property>
    <property name="kdenlive:collapsed">0</property>
   </filter>
  </entry>
  <entry producer="producer7" in="00:00:00,000" out="00:00:49,700">
   <property name="kdenlive:id">13</property>
  </entry>
 </playlist>
 <playlist id="playlist5"/>
 <tractor id="tractor2" in="00:00:00,000" out="00:02:46,600">
  <property name="kdenlive:trackheight">65</property>
  <track producer="playlist4"/>
  <track producer="playlist5"/>
 </tractor>
 <producer title="Anonymous Submission" id="producer15" in="00:00:00,000" out="00:02:21,233">
  <property name="length">4238</property>
  <property name="eof">pause</property>
  <property name="resource">/home/ruben/Videos/follow_qlearn.mp4</property>
  <property name="audio_index">-1</property>
  <property name="video_index">0</property>
  <property name="mute_on_pause">0</property>
  <property name="mlt_service">avformat-novalidate</property>
  <property name="seekable">1</property>
  <property name="aspect_ratio">1</property>
  <property name="kdenlive:clipname"/>
  <property name="kdenlive:folderid">-1</property>
  <property name="kdenlive:id">5</property>
  <property name="kdenlive:file_size">50883110</property>
  <property name="kdenlive:file_hash">4f15e007f0e1f2e2424150ff88e33157</property>
  <property name="global_feed">1</property>
  <property name="xml">was here</property>
  <property name="meta.media.nb_streams">1</property>
  <property name="meta.media.0.stream.type">video</property>
  <property name="meta.media.0.stream.frame_rate">30,0071</property>
  <property name="meta.media.0.stream.sample_aspect_ratio">1</property>
  <property name="meta.media.0.codec.width">1562</property>
  <property name="meta.media.0.codec.height">984</property>
  <property name="meta.media.0.codec.rotate">0</property>
  <property name="meta.media.0.codec.frame_rate">30</property>
  <property name="meta.media.0.codec.pix_fmt">yuv420p</property>
  <property name="meta.media.0.codec.sample_aspect_ratio">1</property>
  <property name="meta.media.0.codec.colorspace">709</property>
  <property name="meta.media.0.codec.color_trc">1</property>
  <property name="meta.media.0.codec.name">h264</property>
  <property name="meta.media.0.codec.long_name">H.264 / AVC / MPEG-4 AVC / MPEG-4 part 10</property>
  <property name="meta.media.0.codec.bit_rate">2878651</property>
  <property name="meta.attr.0.stream.handler_name.markup">VideoHandler</property>
  <property name="meta.attr.major_brand.markup">isom</property>
  <property name="meta.attr.minor_version.markup">512</property>
  <property name="meta.attr.compatible_brands.markup">isomiso2avc1mp41</property>
  <property name="meta.attr.encoder.markup">Lavf58.29.100</property>
  <property name="meta.media.sample_aspect_num">1</property>
  <property name="meta.media.sample_aspect_den">1</property>
  <property name="meta.media.frame_rate_num">63585</property>
  <property name="meta.media.frame_rate_den">2119</property>
  <property name="meta.media.colorspace">709</property>
  <property name="meta.media.color_trc">1</property>
  <property name="meta.media.width">1562</property>
  <property name="meta.media.height">984</property>
  <property name="meta.media.color_range">mpeg</property>
  <property name="meta.media.top_field_first">0</property>
  <property name="meta.media.progressive">1</property>
  <property name="set.test_audio">1</property>
  <property name="set.test_image">0</property>
 </producer>
 <playlist id="playlist6">
  <entry producer="producer15" in="00:00:09,933" out="00:02:19,567">
   <property name="kdenlive:id">5</property>
   <property name="kdenlive:activeeffect">0</property>
   <filter id="filter7">
    <property name="rotate_center">1</property>
    <property name="mlt_service">qtblend</property>
    <property name="kdenlive_id">qtblend</property>
    <property name="rect">00:00:09,933=0 500 764 479 1</property>
    <property name="rotation">00:00:09,933=0</property>
    <property name="compositing">0</property>
    <property name="distort">0</property>
    <property name="kdenlive:collapsed">0</property>
   </filter>
   <filter id="filter8">
    <property name="rotate_center">1</property>
    <property name="mlt_service">qtblend</property>
    <property name="kdenlive_id">qtblend</property>
    <property name="rect">00:00:09,933=0 0 1568 984 1</property>
    <property name="rotation">00:00:09,933=0</property>
    <property name="compositing">0</property>
    <property name="distort">0</property>
    <property name="kdenlive:collapsed">0</property>
   </filter>
  </entry>
  <entry producer="producer10" in="00:00:00,000" out="00:00:36,933">
   <property name="kdenlive:id">16</property>
  </entry>
 </playlist>
 <playlist id="playlist7"/>
 <tractor id="tractor3" in="00:00:00,000" out="00:02:46,600">
  <property name="kdenlive:trackheight">65</property>
  <track producer="playlist6"/>
  <track producer="playlist7"/>
 </tractor>
 <producer title="Anonymous Submission" id="producer16" in="00:00:00,000" out="00:02:11,200">
  <property name="length">3937</property>
  <property name="eof">pause</property>
  <property name="resource">/home/ruben/Videos/follow_line_dqn.mp4</property>
  <property name="audio_index">-1</property>
  <property name="video_index">0</property>
  <property name="mute_on_pause">0</property>
  <property name="mlt_service">avformat-novalidate</property>
  <property name="seekable">1</property>
  <property name="aspect_ratio">1</property>
  <property name="kdenlive:clipname"/>
  <property name="kdenlive:folderid">-1</property>
  <property name="kdenlive:id">6</property>
  <property name="kdenlive:file_size">52427225</property>
  <property name="kdenlive:file_hash">de98ec34d991428f80d14cdc2c275a12</property>
  <property name="global_feed">1</property>
  <property name="xml">was here</property>
  <property name="meta.media.nb_streams">1</property>
  <property name="meta.media.0.stream.type">video</property>
  <property name="meta.media.0.stream.frame_rate">30,0076</property>
  <property name="meta.media.0.stream.sample_aspect_ratio">1</property>
  <property name="meta.media.0.codec.width">1562</property>
  <property name="meta.media.0.codec.height">984</property>
  <property name="meta.media.0.codec.rotate">0</property>
  <property name="meta.media.0.codec.frame_rate">30</property>
  <property name="meta.media.0.codec.pix_fmt">yuv420p</property>
  <property name="meta.media.0.codec.sample_aspect_ratio">1</property>
  <property name="meta.media.0.codec.colorspace">709</property>
  <property name="meta.media.0.codec.color_trc">1</property>
  <property name="meta.media.0.codec.name">h264</property>
  <property name="meta.media.0.codec.long_name">H.264 / AVC / MPEG-4 AVC / MPEG-4 part 10</property>
  <property name="meta.media.0.codec.bit_rate">3193051</property>
  <property name="meta.attr.0.stream.handler_name.markup">VideoHandler</property>
  <property name="meta.attr.major_brand.markup">isom</property>
  <property name="meta.attr.minor_version.markup">512</property>
  <property name="meta.attr.compatible_brands.markup">isomiso2avc1mp41</property>
  <property name="meta.attr.encoder.markup">Lavf58.29.100</property>
  <property name="meta.media.sample_aspect_num">1</property>
  <property name="meta.media.sample_aspect_den">1</property>
  <property name="meta.media.frame_rate_num">118140</property>
  <property name="meta.media.frame_rate_den">3937</property>
  <property name="meta.media.colorspace">709</property>
  <property name="meta.media.color_trc">1</property>
  <property name="meta.media.width">1562</property>
  <property name="meta.media.height">984</property>
  <property name="meta.media.color_range">mpeg</property>
  <property name="meta.media.top_field_first">0</property>
  <property name="meta.media.progressive">1</property>
  <property name="set.test_audio">1</property>
  <property name="set.test_image">0</property>
 </producer>
 <playlist id="playlist8">
  <entry producer="producer16" in="00:00:04,067" out="00:02:07,067">
   <property name="kdenlive:id">6</property>
   <property name="kdenlive:activeeffect">0</property>
   <filter id="filter9">
    <property name="rotate_center">1</property>
    <property name="mlt_service">qtblend</property>
    <property name="kdenlive_id">qtblend</property>
    <property name="rect">00:00:04,067=0 0 844 529 1</property>
    <property name="rotation">00:00:04,067=0</property>
    <property name="compositing">0</property>
    <property name="distort">0</property>
    <property name="kdenlive:collapsed">0</property>
   </filter>
   <filter id="filter10">
    <property name="rotate_center">1</property>
    <property name="mlt_service">qtblend</property>
    <property name="kdenlive_id">qtblend</property>
    <property name="rect">00:00:04,067=0 0 1568 984 1</property>
    <property name="rotation">00:00:04,067=0</property>
    <property name="compositing">0</property>
    <property name="distort">0</property>
    <property name="kdenlive:collapsed">0</property>
   </filter>
  </entry>
  <entry producer="producer9" in="00:00:00,000" out="00:00:43,567">
   <property name="kdenlive:id">15</property>
  </entry>
 </playlist>
 <playlist id="playlist9"/>
 <tractor id="tractor4" in="00:00:00,000" out="00:02:46,600">
  <property name="kdenlive:trackheight">65</property>
  <track producer="playlist8"/>
  <track producer="playlist9"/>
 </tractor>
 <producer title="Anonymous Submission" id="producer17" in="00:00:00,000" out="00:02:51,900">
  <property name="length">5158</property>
  <property name="eof">pause</property>
  <property name="resource">/home/ruben/Videos/follow_line_ddpg.mp4</property>
  <property name="meta.media.nb_streams">1</property>
  <property name="meta.media.0.stream.type">video</property>
  <property name="meta.media.0.stream.frame_rate">30,0058</property>
  <property name="meta.media.0.stream.sample_aspect_ratio">1</property>
  <property name="meta.media.0.codec.width">1562</property>
  <property name="meta.media.0.codec.height">984</property>
  <property name="meta.media.0.codec.rotate">0</property>
  <property name="meta.media.0.codec.frame_rate">30</property>
  <property name="meta.media.0.codec.pix_fmt">yuv420p</property>
  <property name="meta.media.0.codec.sample_aspect_ratio">1</property>
  <property name="meta.media.0.codec.colorspace">709</property>
  <property name="meta.media.0.codec.color_trc">1</property>
  <property name="meta.media.0.codec.name">h264</property>
  <property name="meta.media.0.codec.long_name">H.264 / AVC / MPEG-4 AVC / MPEG-4 part 10</property>
  <property name="meta.media.0.codec.bit_rate">2362695</property>
  <property name="meta.attr.0.stream.handler_name.markup">VideoHandler</property>
  <property name="meta.attr.major_brand.markup">isom</property>
  <property name="meta.attr.minor_version.markup">512</property>
  <property name="meta.attr.compatible_brands.markup">isomiso2avc1mp41</property>
  <property name="meta.attr.encoder.markup">Lavf58.29.100</property>
  <property name="seekable">1</property>
  <property name="meta.media.sample_aspect_num">1</property>
  <property name="meta.media.sample_aspect_den">1</property>
  <property name="aspect_ratio">1</property>
  <property name="audio_index">-1</property>
  <property name="video_index">0</property>
  <property name="mute_on_pause">0</property>
  <property name="mlt_service">avformat-novalidate</property>
  <property name="kdenlive:clipname"/>
  <property name="kdenlive:id">2</property>
  <property name="kdenlive:file_size">50840091</property>
  <property name="kdenlive:file_hash">eaa12212969a0b090dc37ca61ea6e96a</property>
  <property name="kdenlive:folderid">-1</property>
  <property name="global_feed">1</property>
  <property name="xml">was here</property>
  <property name="meta.media.frame_rate_num">77385</property>
  <property name="meta.media.frame_rate_den">2579</property>
  <property name="meta.media.colorspace">709</property>
  <property name="meta.media.color_trc">1</property>
  <property name="meta.media.width">1562</property>
  <property name="meta.media.height">984</property>
  <property name="meta.media.color_range">mpeg</property>
  <property name="meta.media.top_field_first">0</property>
  <property name="meta.media.progressive">1</property>
  <property name="set.test_audio">1</property>
  <property name="set.test_image">0</property>
 </producer>
 <playlist id="playlist10">
  <entry producer="producer17" in="00:00:06,033" out="00:02:49,833">
   <property name="kdenlive:id">2</property>
   <property name="kdenlive:activeeffect">0</property>
   <filter id="filter11">
    <property name="rotate_center">1</property>
    <property name="mlt_service">qtblend</property>
    <property name="kdenlive_id">qtblend</property>
    <property name="rect">00:00:06,033=750 0 844 530 1</property>
    <property name="rotation">00:00:06,033=0</property>
    <property name="compositing">0</property>
    <property name="distort">0</property>
    <property name="kdenlive:collapsed">0</property>
   </filter>
  </entry>
  <entry producer="producer11" in="00:00:00,000" out="00:00:02,767">
   <property name="kdenlive:id">17</property>
  </entry>
 </playlist>
 <playlist id="playlist11"/>
 <tractor id="tractor5" in="00:00:00,000" out="00:02:46,600">
  <property name="kdenlive:trackheight">65</property>
  <track hide="audio" producer="playlist10"/>
  <track hide="audio" producer="playlist11"/>
 </tractor>
 <playlist id="playlist12">
  <entry producer="producer6" in="00:00:00,000" out="00:02:46,600">
   <property name="kdenlive:id">11</property>
  </entry>
 </playlist>
 <playlist id="playlist13"/>
 <tractor id="tractor6" in="00:00:00,000" out="00:02:46,600">
  <property name="kdenlive:trackheight">65</property>
  <track producer="playlist12"/>
  <track producer="playlist13"/>
 </tractor>
 <playlist id="playlist14">
  <entry producer="producer8" in="00:00:00,000" out="00:02:46,600">
   <property name="kdenlive:id">14</property>
  </entry>
 </playlist>
 <playlist id="playlist15"/>
 <tractor id="tractor7" in="00:00:00,000" out="00:02:46,600">
  <property name="kdenlive:trackheight">65</property>
  <track producer="playlist14"/>
  <track producer="playlist15"/>
 </tractor>
 <playlist id="playlist16">
  <entry producer="producer4" in="00:00:00,000" out="00:02:46,600">
   <property name="kdenlive:id">9</property>
  </entry>
 </playlist>
 <playlist id="playlist17"/>
 <tractor id="tractor8" in="00:00:00,000" out="00:03:19,920">
  <property name="kdenlive:trackheight">65</property>
  <property name="kdenlive:collapsed">0</property>
  <property name="kdenlive:thumbs_format"/>
  <property name="kdenlive:audio_rec"/>
  <property name="kdenlive:timeline_active">1</property>
  <track hide="audio" producer="playlist16"/>
  <track hide="audio" producer="playlist17"/>
 </tractor>
 <playlist id="playlist18">
  <entry producer="producer5" in="00:00:00,000" out="00:02:46,600">
   <property name="kdenlive:id">10</property>
  </entry>
  <entry producer="producer13" in="00:00:00,000" out="00:00:10,300">
   <property name="kdenlive:id">19</property>
  </entry>
 </playlist>
 <playlist id="playlist19"/>
 <tractor id="tractor9" in="00:00:00,000" out="00:03:32,320">
  <property name="kdenlive:trackheight">65</property>
  <property name="kdenlive:collapsed">0</property>
  <property name="kdenlive:thumbs_format"/>
  <property name="kdenlive:audio_rec"/>
  <property name="kdenlive:timeline_active"/>
  <track hide="audio" producer="playlist18"/>
  <track hide="audio" producer="playlist19"/>
 </tractor>
 <tractor title="Anonymous Submission" id="tractor10" global_feed="1" in="00:00:00,000" out="00:19:36,967">
  <track producer="black_track"/>
  <track producer="tractor0"/>
  <track producer="tractor1"/>
  <track producer="tractor2"/>
  <track producer="tractor3"/>
  <track producer="tractor4"/>
  <track producer="tractor5"/>
  <track producer="tractor6"/>
  <track producer="tractor7"/>
  <track producer="tractor8"/>
  <track producer="tractor9"/>
  <transition id="transition0">
   <property name="a_track">0</property>
   <property name="b_track">1</property>
   <property name="mlt_service">mix</property>
   <property name="kdenlive_id">mix</property>
   <property name="internal_added">237</property>
   <property name="always_active">1</property>
   <property name="sum">1</property>
  </transition>
  <transition id="transition1">
   <property name="a_track">0</property>
   <property name="b_track">2</property>
   <property name="mlt_service">mix</property>
   <property name="kdenlive_id">mix</property>
   <property name="internal_added">237</property>
   <property name="always_active">1</property>
   <property name="sum">1</property>
  </transition>
  <transition id="transition2">
   <property name="a_track">0</property>
   <property name="b_track">1</property>
   <property name="mlt_service">mix</property>
   <property name="kdenlive_id">mix</property>
   <property name="internal_added">237</property>
   <property name="always_active">1</property>
   <property name="sum">1</property>
  </transition>
  <transition id="transition3">
   <property name="a_track">0</property>
   <property name="b_track">2</property>
   <property name="mlt_service">mix</property>
   <property name="kdenlive_id">mix</property>
   <property name="internal_added">237</property>
   <property name="always_active">1</property>
   <property name="sum">1</property>
  </transition>
  <transition id="transition4">
   <property name="a_track">0</property>
   <property name="b_track">1</property>
   <property name="mlt_service">mix</property>
   <property name="kdenlive_id">mix</property>
   <property name="internal_added">237</property>
   <property name="always_active">1</property>
   <property name="sum">1</property>
  </transition>
  <transition id="transition5">
   <property name="a_track">0</property>
   <property name="b_track">2</property>
   <property name="mlt_service">mix</property>
   <property name="kdenlive_id">mix</property>
   <property name="internal_added">237</property>
   <property name="always_active">1</property>
   <property name="sum">1</property>
  </transition>
  <transition id="transition6">
   <property name="a_track">0</property>
   <property name="b_track">1</property>
   <property name="mlt_service">mix</property>
   <property name="kdenlive_id">mix</property>
   <property name="internal_added">237</property>
   <property name="always_active">1</property>
   <property name="sum">1</property>
  </transition>
  <transition id="transition7">
   <property name="a_track">0</property>
   <property name="b_track">2</property>
   <property name="mlt_service">mix</property>
   <property name="kdenlive_id">mix</property>
   <property name="internal_added">237</property>
   <property name="always_active">1</property>
   <property name="sum">1</property>
  </transition>
  <transition id="transition8">
   <property name="a_track">0</property>
   <property name="b_track">1</property>
   <property name="mlt_service">mix</property>
   <property name="kdenlive_id">mix</property>
   <property name="internal_added">237</property>
   <property name="always_active">1</property>
   <property name="sum">1</property>
  </transition>
  <transition id="transition9">
   <property name="a_track">0</property>
   <property name="b_track">2</property>
   <property name="mlt_service">mix</property>
   <property name="kdenlive_id">mix</property>
   <property name="internal_added">237</property>
   <property name="always_active">1</property>
   <property name="sum">1</property>
  </transition>
  <transition id="transition10">
   <property name="a_track">0</property>
   <property name="b_track">1</property>
   <property name="mlt_service">mix</property>
   <property name="kdenlive_id">mix</property>
   <property name="internal_added">237</property>
   <property name="always_active">1</property>
   <property name="sum">1</property>
  </transition>
  <transition id="transition11">
   <property name="a_track">0</property>
   <property name="b_track">2</property>
   <property name="mlt_service">mix</property>
   <property name="kdenlive_id">mix</property>
   <property name="internal_added">237</property>
   <property name="always_active">1</property>
   <property name="sum">1</property>
  </transition>
  <transition id="transition12">
   <property name="a_track">0</property>
   <property name="b_track">1</property>
   <property name="mlt_service">mix</property>
   <property name="kdenlive_id">mix</property>
   <property name="internal_added">237</property>
   <property name="always_active">1</property>
   <property name="sum">1</property>
  </transition>
  <transition id="transition13">
   <property name="a_track">0</property>
   <property name="b_track">2</property>
   <property name="mlt_service">mix</property>
   <property name="kdenlive_id">mix</property>
   <property name="internal_added">237</property>
   <property name="always_active">1</property>
   <property name="sum">1</property>
  </transition>
  <transition id="transition14">
   <property name="a_track">0</property>
   <property name="b_track">3</property>
   <property name="compositing">0</property>
   <property name="distort">0</property>
   <property name="rotate_center">0</property>
   <property name="mlt_service">qtblend</property>
   <property name="kdenlive_id">qtblend</property>
   <property name="internal_added">237</property>
   <property name="always_active">1</property>
  </transition>
  <transition id="transition15">
   <property name="a_track">0</property>
   <property name="b_track">3</property>
   <property name="compositing">0</property>
   <property name="distort">0</property>
   <property name="rotate_center">0</property>
   <property name="mlt_service">qtblend</property>
   <property name="kdenlive_id">qtblend</property>
   <property name="internal_added">237</property>
   <property name="always_active">1</property>
  </transition>
  <transition id="transition16">
   <property name="a_track">0</property>
   <property name="b_track">3</property>
   <property name="compositing">0</property>
   <property name="distort">0</property>
   <property name="rotate_center">0</property>
   <property name="mlt_service">qtblend</property>
   <property name="kdenlive_id">qtblend</property>
   <property name="internal_added">237</property>
   <property name="always_active">1</property>
  </transition>
  <transition id="transition17">
   <property name="a_track">0</property>
   <property name="b_track">4</property>
   <property name="compositing">0</property>
   <property name="distort">0</property>
   <property name="rotate_center">0</property>
   <property name="mlt_service">qtblend</property>
   <property name="kdenlive_id">qtblend</property>
   <property name="internal_added">237</property>
   <property name="always_active">1</property>
  </transition>
  <transition id="transition18">
   <property name="a_track">0</property>
   <property name="b_track">5</property>
   <property name="compositing">0</property>
   <property name="distort">0</property>
   <property name="rotate_center">0</property>
   <property name="mlt_service">qtblend</property>
   <property name="kdenlive_id">qtblend</property>
   <property name="internal_added">237</property>
   <property name="always_active">1</property>
  </transition>
  <transition id="transition19">
   <property name="a_track">0</property>
   <property name="b_track">5</property>
   <property name="compositing">0</property>
   <property name="distort">0</property>
   <property name="rotate_center">0</property>
   <property name="mlt_service">qtblend</property>
   <property name="kdenlive_id">qtblend</property>
   <property name="internal_added">237</property>
   <property name="always_active">1</property>
  </transition>
  <transition id="transition20">
   <property name="a_track">0</property>
   <property name="b_track">6</property>
   <property name="compositing">0</property>
   <property name="distort">0</property>
   <property name="rotate_center">0</property>
   <property name="mlt_service">qtblend</property>
   <property name="kdenlive_id">qtblend</property>
   <property name="internal_added">237</property>
   <property name="always_active">1</property>
  </transition>
  <transition id="transition21">
   <property name="a_track">0</property>
   <property name="b_track">6</property>
   <property name="compositing">0</property>
   <property name="distort">0</property>
   <property name="rotate_center">0</property>
   <property name="mlt_service">qtblend</property>
   <property name="kdenlive_id">qtblend</property>
   <property name="internal_added">237</property>
   <property name="always_active">1</property>
  </transition>
  <transition id="transition22">
   <property name="a_track">0</property>
   <property name="b_track">6</property>
   <property name="compositing">0</property>
   <property name="distort">0</property>
   <property name="rotate_center">0</property>
   <property name="mlt_service">qtblend</property>
   <property name="kdenlive_id">qtblend</property>
   <property name="internal_added">237</property>
   <property name="always_active">1</property>
  </transition>
  <transition id="transition23">
   <property name="a_track">0</property>
   <property name="b_track">6</property>
   <property name="compositing">0</property>
   <property name="distort">0</property>
   <property name="rotate_center">0</property>
   <property name="mlt_service">qtblend</property>
   <property name="kdenlive_id">qtblend</property>
   <property name="internal_added">237</property>
   <property name="always_active">1</property>
  </transition>
  <transition id="transition24">
   <property name="a_track">0</property>
   <property name="b_track">7</property>
   <property name="compositing">0</property>
   <property name="distort">0</property>
   <property name="rotate_center">0</property>
   <property name="mlt_service">qtblend</property>
   <property name="kdenlive_id">qtblend</property>
   <property name="internal_added">237</property>
   <property name="always_active">1</property>
  </transition>
  <transition id="transition25">
   <property name="a_track">0</property>
   <property name="b_track">7</property>
   <property name="compositing">0</property>
   <property name="distort">0</property>
   <property name="rotate_center">0</property>
   <property name="mlt_service">qtblend</property>
   <property name="kdenlive_id">qtblend</property>
   <property name="internal_added">237</property>
   <property name="always_active">1</property>
  </transition>
  <transition id="transition26">
   <property name="a_track">0</property>
   <property name="b_track">7</property>
   <property name="compositing">0</property>
   <property name="distort">0</property>
   <property name="rotate_center">0</property>
   <property name="mlt_service">qtblend</property>
   <property name="kdenlive_id">qtblend</property>
   <property name="internal_added">237</property>
   <property name="always_active">1</property>
  </transition>
  <transition id="transition27">
   <property name="a_track">0</property>
   <property name="b_track">7</property>
   <property name="compositing">0</property>
   <property name="distort">0</property>
   <property name="rotate_center">0</property>
   <property name="mlt_service">qtblend</property>
   <property name="kdenlive_id">qtblend</property>
   <property name="internal_added">237</property>
   <property name="always_active">1</property>
  </transition>
  <transition id="transition28">
   <property name="a_track">0</property>
   <property name="b_track">7</property>
   <property name="compositing">0</property>
   <property name="distort">0</property>
   <property name="rotate_center">0</property>
   <property name="mlt_service">qtblend</property>
   <property name="kdenlive_id">qtblend</property>
   <property name="internal_added">237</property>
   <property name="always_active">1</property>
  </transition>
  <transition id="transition29">
   <property name="a_track">0</property>
   <property name="b_track">8</property>
   <property name="compositing">0</property>
   <property name="distort">0</property>
   <property name="rotate_center">0</property>
   <property name="mlt_service">qtblend</property>
   <property name="kdenlive_id">qtblend</property>
   <property name="internal_added">237</property>
   <property name="always_active">1</property>
  </transition>
  <transition id="transition30">
   <property name="a_track">0</property>
   <property name="b_track">8</property>
   <property name="compositing">0</property>
   <property name="distort">0</property>
   <property name="rotate_center">0</property>
   <property name="mlt_service">qtblend</property>
   <property name="kdenlive_id">qtblend</property>
   <property name="internal_added">237</property>
   <property name="always_active">1</property>
  </transition>
  <transition id="transition31">
   <property name="a_track">0</property>
   <property name="b_track">8</property>
   <property name="compositing">0</property>
   <property name="distort">0</property>
   <property name="rotate_center">0</property>
   <property name="mlt_service">qtblend</property>
   <property name="kdenlive_id">qtblend</property>
   <property name="internal_added">237</property>
   <property name="always_active">1</property>
  </transition>
  <transition id="transition32">
   <property name="a_track">0</property>
   <property name="b_track">8</property>
   <property name="compositing">0</property>
   <property name="distort">0</property>
   <property name="rotate_center">0</property>
   <property name="mlt_service">qtblend</property>
   <property name="kdenlive_id">qtblend</property>
   <property name="internal_added">237</property>
   <property name="always_active">1</property>
  </transition>
  <transition id="transition33">
   <property name="a_track">0</property>
   <property name="b_track">8</property>
   <property name="compositing">0</property>
   <property name="distort">0</property>
   <property name="rotate_center">0</property>
   <property name="mlt_service">qtblend</property>
   <property name="kdenlive_id">qtblend</property>
   <property name="internal_added">237</property>
   <property name="always_active">1</property>
  </transition>
  <transition id="transition34">
   <property name="a_track">0</property>
   <property name="b_track">8</property>
   <property name="compositing">0</property>
   <property name="distort">0</property>
   <property name="rotate_center">0</property>
   <property name="mlt_service">qtblend</property>
   <property name="kdenlive_id">qtblend</property>
   <property name="internal_added">237</property>
   <property name="always_active">1</property>
  </transition>
  <transition id="transition35">
   <property name="a_track">0</property>
   <property name="b_track">9</property>
   <property name="compositing">0</property>
   <property name="distort">0</property>
   <property name="rotate_center">0</property>
   <property name="mlt_service">qtblend</property>
   <property name="kdenlive_id">qtblend</property>
   <property name="internal_added">237</property>
   <property name="always_active">1</property>
  </transition>
  <transition id="transition36">
   <property name="a_track">0</property>
   <property name="b_track">9</property>
   <property name="compositing">0</property>
   <property name="distort">0</property>
   <property name="rotate_center">0</property>
   <property name="mlt_service">qtblend</property>
   <property name="kdenlive_id">qtblend</property>
   <property name="internal_added">237</property>
   <property name="always_active">1</property>
  </transition>
  <transition id="transition37">
   <property name="a_track">0</property>
   <property name="b_track">9</property>
   <property name="compositing">0</property>
   <property name="distort">0</property>
   <property name="rotate_center">0</property>
   <property name="mlt_service">qtblend</property>
   <property name="kdenlive_id">qtblend</property>
   <property name="internal_added">237</property>
   <property name="always_active">1</property>
  </transition>
  <transition id="transition38">
   <property name="a_track">0</property>
   <property name="b_track">9</property>
   <property name="compositing">0</property>
   <property name="distort">0</property>
   <property name="rotate_center">0</property>
   <property name="mlt_service">qtblend</property>
   <property name="kdenlive_id">qtblend</property>
   <property name="internal_added">237</property>
   <property name="always_active">1</property>
  </transition>
  <transition id="transition39">
   <property name="a_track">0</property>
   <property name="b_track">9</property>
   <property name="compositing">0</property>
   <property name="distort">0</property>
   <property name="rotate_center">0</property>
   <property name="mlt_service">qtblend</property>
   <property name="kdenlive_id">qtblend</property>
   <property name="internal_added">237</property>
   <property name="always_active">1</property>
  </transition>
  <transition id="transition40">
   <property name="a_track">0</property>
   <property name="b_track">9</property>
   <property name="compositing">0</property>
   <property name="distort">0</property>
   <property name="rotate_center">0</property>
   <property name="mlt_service">qtblend</property>
   <property name="kdenlive_id">qtblend</property>
   <property name="internal_added">237</property>
   <property name="always_active">1</property>
  </transition>
  <transition id="transition41">
   <property name="a_track">0</property>
   <property name="b_track">9</property>
   <property name="compositing">0</property>
   <property name="distort">0</property>
   <property name="rotate_center">0</property>
   <property name="mlt_service">qtblend</property>
   <property name="kdenlive_id">qtblend</property>
   <property name="internal_added">237</property>
   <property name="always_active">1</property>
  </transition>
  <transition id="transition42">
   <property name="a_track">0</property>
   <property name="b_track">10</property>
   <property name="compositing">0</property>
   <property name="distort">0</property>
   <property name="rotate_center">0</property>
   <property name="mlt_service">qtblend</property>
   <property name="kdenlive_id">qtblend</property>
   <property name="internal_added">237</property>
   <property name="always_active">1</property>
  </transition>
  <filter id="filter12">
   <property name="window">75</property>
   <property name="max_gain">20dB</property>
   <property name="mlt_service">volume</property>
   <property name="internal_added">237</property>
   <property name="disable">1</property>
  </filter>
  <filter id="filter13">
   <property name="channel">-1</property>
   <property name="mlt_service">panner</property>
   <property name="internal_added">237</property>
   <property name="start">0,5</property>
   <property name="disable">1</property>
  </filter>
  <filter id="filter14">
   <property name="iec_scale">0</property>
   <property name="mlt_service">audiolevel</property>
  </filter>
 </tractor>
</mlt>
